<svg width="50" height="66" viewBox="0 0 50 66" fill="none" xmlns="http://www.w3.org/2000/svg" xmlns:xlink="http://www.w3.org/1999/xlink">
<path d="M37.412,25.768C35.202,28.784 34.036,30.445 32.017,30.844L29.324,31.8C31.041,31.094 33.116,29.91 34.529,27.964C37.681,23.628 42.797,19.713 49,21.625C49,21.625 43.358,16.276 38.254,19.394C34.148,21.898 33.295,24.345 31.961,26.837C32.118,26.439 32.241,26.018 32.342,25.563C33.43,20.635 38.029,11.45 43.963,10.995C43.963,10.995 36.055,6.294 30.525,15.672C27.339,21.079 27.967,25.711 27.496,29.296C26.307,32.005 25.813,28.044 25.735,27.361C25.757,26.61 25.836,25.881 26.004,25.221C26.812,22.148 29.784,16.321 29.784,11.074C29.784,6.192 25.566,4.302 24.994,0.012C24.422,4.302 20.204,6.203 20.204,11.074C20.204,16.31 23.177,22.148 23.985,25.221C24.164,25.904 24.243,26.667 24.254,27.429C24.164,28.271 23.66,31.925 22.504,29.296C22.022,25.711 22.661,21.079 19.475,15.672C13.945,6.306 6.037,10.995 6.037,10.995C11.971,11.45 16.57,20.635 17.658,25.563C17.759,26.007 17.882,26.428 18.039,26.837C16.705,24.345 15.841,21.898 11.746,19.394C6.654,16.287 1,21.625 1,21.625C7.203,19.713 12.33,23.628 15.471,27.964C16.884,29.91 18.971,31.105 20.676,31.8L17.983,30.844C15.964,30.457 14.798,28.784 12.588,25.768C8,19.519 2.784,24.629 2.784,24.629C2.784,24.629 6.227,24.914 7.102,28.545C7.899,31.8 12.016,31.299 14.416,31.857C15.28,32.061 15.347,32.392 15.291,32.619C15.224,32.858 14.977,33.279 14.293,32.915C11.814,31.595 11.444,31.766 9.604,32.187C5.667,33.086 5.767,37.604 5.767,37.604C7.114,35.703 8.875,35.191 10.232,34.679C13.137,33.587 15.392,34.452 16.278,35.647C17.501,37.308 23.581,34.338 25.006,33.598C26.43,34.326 32.51,37.308 33.733,35.647C34.619,34.44 36.874,33.587 39.779,34.679C41.136,35.191 42.898,35.703 44.244,37.604C44.244,37.604 44.345,33.086 40.407,32.187C38.556,31.766 38.186,31.595 35.718,32.915C35.034,33.279 34.776,32.858 34.72,32.619C34.664,32.392 34.72,32.061 35.595,31.857C37.984,31.299 42.112,31.8 42.909,28.545C43.795,24.914 47.228,24.629 47.228,24.629C47.228,24.629 42.011,19.508 37.423,25.768L37.412,25.768Z" fill="#700606"/>
<path d="M27.449,38.264C27.449,39.516 26.451,40.529 25.217,40.529C23.983,40.529 22.984,39.516 22.984,38.264C22.984,37.012 23.983,35.999 25.217,35.999C26.451,35.999 27.449,37.012 27.449,38.264Z" fill="#700606"/>
<path d="M25.206,66L20.281,54.334L25.206,42.657L30.141,54.334L25.206,66Z" fill="#700606"/>
</svg>
