<svg width="48" height="66" viewBox="0 0 48 66" fill="none" xmlns="http://www.w3.org/2000/svg" xmlns:xlink="http://www.w3.org/1999/xlink">
<path d="M36.412,25.308C34.202,28.324 33.036,29.985 31.017,30.384L28.324,31.34C30.041,30.634 32.116,29.45 33.529,27.504C36.681,23.168 41.797,19.253 48,21.165C48,21.165 42.358,15.816 37.254,18.934C33.148,21.438 32.295,23.885 30.961,26.377C31.118,25.979 31.241,25.558 31.342,25.103C32.43,20.175 37.029,10.99 42.963,10.535C42.963,10.535 35.055,5.834 29.525,15.212C26.339,20.619 26.967,25.251 26.496,28.836C25.307,31.545 24.813,27.584 24.735,26.901C24.757,26.15 24.836,25.421 25.004,24.761C25.812,21.688 28.784,15.861 28.784,10.614C28.784,5.732 24.566,3.842 23.994,-0.448C23.422,3.842 19.204,5.743 19.204,10.614C19.204,15.85 22.177,21.688 22.985,24.761C23.164,25.444 23.243,26.207 23.254,26.969C23.164,27.811 22.66,31.465 21.504,28.836C21.022,25.251 21.661,20.619 18.475,15.212C12.945,5.846 5.037,10.535 5.037,10.535C10.971,10.99 15.57,20.175 16.658,25.103C16.759,25.547 16.882,25.968 17.039,26.377C15.705,23.885 14.841,21.438 10.746,18.934C5.654,15.827 0,21.165 0,21.165C6.203,19.253 11.33,23.168 14.471,27.504C15.884,29.45 17.971,30.645 19.676,31.34L16.983,30.384C14.964,29.997 13.798,28.324 11.588,25.308C7,19.059 1.784,24.169 1.784,24.169C1.784,24.169 5.227,24.454 6.102,28.085C6.899,31.34 11.016,30.839 13.416,31.397C14.28,31.601 14.347,31.932 14.291,32.159C14.224,32.398 13.977,32.819 13.293,32.455C10.814,31.135 10.444,31.306 8.604,31.727C4.667,32.626 4.767,37.144 4.767,37.144C6.114,35.243 7.875,34.731 9.232,34.219C12.137,33.127 14.392,33.992 15.278,35.187C16.501,36.848 22.581,33.878 24.006,33.138C25.43,33.866 31.51,36.848 32.733,35.187C33.619,33.98 35.874,33.127 38.779,34.219C40.136,34.731 41.898,35.243 43.244,37.144C43.244,37.144 43.345,32.626 39.407,31.727C37.556,31.306 37.186,31.135 34.718,32.455C34.034,32.819 33.776,32.398 33.72,32.159C33.664,31.932 33.72,31.601 34.595,31.397C36.984,30.839 41.112,31.34 41.909,28.085C42.795,24.454 46.228,24.169 46.228,24.169C46.228,24.169 41.011,19.048 36.423,25.308L36.412,25.308Z" fill="#700606"/>
<path d="M26.449,37.804C26.449,39.056 25.451,40.069 24.217,40.069C22.983,40.069 21.984,39.056 21.984,37.804C21.984,36.552 22.983,35.539 24.217,35.539C25.451,35.539 26.449,36.552 26.449,37.804Z" fill="#700606"/>
<path d="M24.206,65.54L19.281,53.874L24.206,42.197L29.141,53.874L24.206,65.54Z" fill="#700606"/>
</svg>
