<svg width="48" height="68" viewBox="0 0 48 68" fill="none" xmlns="http://www.w3.org/2000/svg" xmlns:xlink="http://www.w3.org/1999/xlink">
<path d="M35.897,26.768C33.687,29.784 32.52,31.445 30.501,31.844L27.809,32.8C29.525,32.094 31.6,30.91 33.014,28.964C36.166,24.628 41.281,20.713 47.484,22.625C47.484,22.625 41.842,17.276 36.738,20.394C32.632,22.898 31.78,25.345 30.445,27.837C30.602,27.439 30.725,27.018 30.826,26.563C31.914,21.635 36.514,12.45 42.448,11.995C42.448,11.995 34.539,7.294 29.009,16.672C25.823,22.079 26.451,26.711 25.98,30.296C24.791,33.005 24.298,29.044 24.219,28.361C24.242,27.61 24.32,26.881 24.488,26.221C25.296,23.148 28.269,17.321 28.269,12.074C28.269,7.192 24.051,5.302 23.479,1.012C22.907,5.302 18.689,7.203 18.689,12.074C18.689,17.31 21.662,23.148 22.469,26.221C22.649,26.904 22.727,27.667 22.738,28.429C22.649,29.271 22.144,32.925 20.988,30.296C20.506,26.711 21.146,22.079 17.96,16.672C12.429,7.306 4.521,11.995 4.521,11.995C10.455,12.45 15.054,21.635 16.142,26.563C16.243,27.007 16.367,27.428 16.524,27.837C15.189,25.345 14.325,22.898 10.231,20.394C5.138,17.287 -0.516,22.625 -0.516,22.625C5.688,20.713 10.814,24.628 13.955,28.964C15.368,30.91 17.455,32.105 19.16,32.8L16.468,31.844C14.449,31.457 13.282,29.784 11.072,26.768C6.484,20.519 1.268,25.629 1.268,25.629C1.268,25.629 4.712,25.914 5.587,29.545C6.383,32.8 10.5,32.299 12.901,32.857C13.764,33.061 13.832,33.392 13.776,33.619C13.708,33.858 13.461,34.279 12.777,33.915C10.298,32.595 9.928,32.766 8.088,33.187C4.151,34.086 4.252,38.604 4.252,38.604C5.598,36.703 7.359,36.191 8.716,35.679C11.622,34.587 13.877,35.452 14.763,36.647C15.985,38.308 22.065,35.338 23.49,34.598C24.915,35.326 30.995,38.308 32.217,36.647C33.103,35.44 35.358,34.587 38.264,35.679C39.621,36.191 41.382,36.703 42.728,38.604C42.728,38.604 42.829,34.086 38.892,33.187C37.041,32.766 36.671,32.595 34.203,33.915C33.519,34.279 33.261,33.858 33.204,33.619C33.148,33.392 33.204,33.061 34.079,32.857C36.469,32.299 40.597,32.8 41.393,29.545C42.279,25.914 45.712,25.629 45.712,25.629C45.712,25.629 40.496,20.508 35.908,26.768L35.897,26.768Z" fill="#700606"/>
<path d="M25.933,39.264C25.933,40.516 24.935,41.529 23.701,41.529C22.467,41.529 21.469,40.516 21.469,39.264C21.469,38.012 22.467,36.999 23.701,36.999C24.935,36.999 25.933,38.012 25.933,39.264Z" fill="#700606"/>
<path d="M23.69,67L18.766,55.334L23.69,43.657L28.626,55.334L23.69,67Z" fill="#700606"/>
</svg>
