<svg width="48" height="66" viewBox="0 0 48 66" fill="none" xmlns="http://www.w3.org/2000/svg" xmlns:xlink="http://www.w3.org/1999/xlink">
<path d="M36.412,25.768C34.202,28.784 33.036,30.445 31.017,30.844L28.324,31.8C30.041,31.094 32.116,29.91 33.529,27.964C36.681,23.628 41.797,19.713 48,21.625C48,21.625 42.358,16.276 37.254,19.394C33.148,21.898 32.295,24.345 30.961,26.837C31.118,26.439 31.241,26.018 31.342,25.563C32.43,20.635 37.029,11.45 42.963,10.995C42.963,10.995 35.055,6.294 29.525,15.672C26.339,21.079 26.967,25.711 26.496,29.296C25.307,32.005 24.813,28.044 24.735,27.361C24.757,26.61 24.836,25.881 25.004,25.221C25.812,22.148 28.784,16.321 28.784,11.074C28.784,6.192 24.566,4.302 23.994,0.012C23.422,4.302 19.204,6.203 19.204,11.074C19.204,16.31 22.177,22.148 22.985,25.221C23.164,25.904 23.243,26.667 23.254,27.429C23.164,28.271 22.66,31.925 21.504,29.296C21.022,25.711 21.661,21.079 18.475,15.672C12.945,6.306 5.037,10.995 5.037,10.995C10.971,11.45 15.57,20.635 16.658,25.563C16.759,26.007 16.882,26.428 17.039,26.837C15.705,24.345 14.841,21.898 10.746,19.394C5.654,16.287 0,21.625 0,21.625C6.203,19.713 11.33,23.628 14.471,27.964C15.884,29.91 17.971,31.105 19.676,31.8L16.983,30.844C14.964,30.457 13.798,28.784 11.588,25.768C7,19.519 1.784,24.629 1.784,24.629C1.784,24.629 5.227,24.914 6.102,28.545C6.899,31.8 11.016,31.299 13.416,31.857C14.28,32.061 14.347,32.392 14.291,32.619C14.224,32.858 13.977,33.279 13.293,32.915C10.814,31.595 10.444,31.766 8.604,32.187C4.667,33.086 4.767,37.604 4.767,37.604C6.114,35.703 7.875,35.191 9.232,34.679C12.137,33.587 14.392,34.452 15.278,35.647C16.501,37.308 22.581,34.338 24.006,33.598C25.43,34.326 31.51,37.308 32.733,35.647C33.619,34.44 35.874,33.587 38.779,34.679C40.136,35.191 41.898,35.703 43.244,37.604C43.244,37.604 43.345,33.086 39.407,32.187C37.556,31.766 37.186,31.595 34.718,32.915C34.034,33.279 33.776,32.858 33.72,32.619C33.664,32.392 33.72,32.061 34.595,31.857C36.984,31.299 41.112,31.8 41.909,28.545C42.795,24.914 46.228,24.629 46.228,24.629C46.228,24.629 41.011,19.508 36.423,25.768L36.412,25.768Z" fill="#700606"/>
<path d="M26.453,38.264C26.453,39.516 25.455,40.529 24.221,40.529C22.987,40.529 21.988,39.516 21.988,38.264C21.988,37.012 22.987,35.999 24.221,35.999C25.455,35.999 26.453,37.012 26.453,38.264Z" fill="#700606"/>
<path d="M24.206,66L19.281,54.334L24.206,42.657L29.141,54.334L24.206,66Z" fill="#700606"/>
</svg>
