<svg width="48" height="66" viewBox="0 0 48 66" fill="none" xmlns="http://www.w3.org/2000/svg" xmlns:xlink="http://www.w3.org/1999/xlink">
<path d="M36.412,25.388C34.202,28.404 33.036,30.065 31.017,30.464L28.324,31.42C30.041,30.714 32.116,29.53 33.529,27.584C36.681,23.248 41.797,19.333 48,21.245C48,21.245 42.358,15.896 37.254,19.014C33.148,21.518 32.295,23.965 30.961,26.457C31.118,26.059 31.241,25.638 31.342,25.183C32.43,20.255 37.029,11.07 42.963,10.615C42.963,10.615 35.055,5.914 29.525,15.292C26.339,20.699 26.967,25.331 26.496,28.916C25.307,31.625 24.813,27.664 24.735,26.981C24.757,26.23 24.836,25.501 25.004,24.841C25.812,21.768 28.784,15.941 28.784,10.694C28.784,5.812 24.566,3.923 23.994,-0.368C23.422,3.923 19.204,5.823 19.204,10.694C19.204,15.93 22.177,21.768 22.985,24.841C23.164,25.524 23.243,26.287 23.254,27.049C23.164,27.891 22.66,31.545 21.504,28.916C21.022,25.331 21.661,20.699 18.475,15.292C12.945,5.926 5.037,10.615 5.037,10.615C10.971,11.07 15.57,20.255 16.658,25.183C16.759,25.627 16.882,26.048 17.039,26.457C15.705,23.965 14.841,21.518 10.746,19.014C5.654,15.907 0,21.245 0,21.245C6.203,19.333 11.33,23.248 14.471,27.584C15.884,29.53 17.971,30.725 19.676,31.42L16.983,30.464C14.964,30.077 13.798,28.404 11.588,25.388C7,19.139 1.784,24.249 1.784,24.249C1.784,24.249 5.227,24.534 6.102,28.165C6.899,31.42 11.016,30.919 13.416,31.477C14.28,31.681 14.347,32.012 14.291,32.239C14.224,32.478 13.977,32.899 13.293,32.535C10.814,31.215 10.444,31.386 8.604,31.807C4.667,32.706 4.767,37.224 4.767,37.224C6.114,35.323 7.875,34.811 9.232,34.299C12.137,33.207 14.392,34.072 15.278,35.267C16.501,36.928 22.581,33.958 24.006,33.218C25.43,33.946 31.51,36.928 32.733,35.267C33.619,34.06 35.874,33.207 38.779,34.299C40.136,34.811 41.898,35.323 43.244,37.224C43.244,37.224 43.345,32.706 39.407,31.807C37.556,31.386 37.186,31.215 34.718,32.535C34.034,32.899 33.776,32.478 33.72,32.239C33.664,32.012 33.72,31.681 34.595,31.477C36.984,30.919 41.112,31.42 41.909,28.165C42.795,24.534 46.228,24.249 46.228,24.249C46.228,24.249 41.011,19.128 36.423,25.388L36.412,25.388Z" fill="#700606"/>
<path d="M26.449,37.884C26.449,39.136 25.451,40.149 24.217,40.149C22.983,40.149 21.984,39.136 21.984,37.884C21.984,36.632 22.983,35.619 24.217,35.619C25.451,35.619 26.449,36.632 26.449,37.884Z" fill="#700606"/>
<path d="M24.206,65.62L19.281,53.955L24.206,42.277L29.141,53.955L24.206,65.62Z" fill="#700606"/>
</svg>
