<svg width="48" height="66" viewBox="0 0 48 66" fill="none" xmlns="http://www.w3.org/2000/svg" xmlns:xlink="http://www.w3.org/1999/xlink">
<path d="M35.412,25.768C33.202,28.784 32.036,30.445 30.017,30.844L27.324,31.8C29.041,31.094 31.116,29.91 32.529,27.964C35.681,23.628 40.797,19.713 47,21.625C47,21.625 41.358,16.276 36.254,19.394C32.148,21.898 31.295,24.345 29.961,26.837C30.118,26.439 30.241,26.018 30.342,25.563C31.43,20.635 36.029,11.45 41.963,10.995C41.963,10.995 34.055,6.294 28.525,15.672C25.339,21.079 25.967,25.711 25.496,29.296C24.307,32.005 23.813,28.044 23.735,27.361C23.757,26.61 23.836,25.881 24.004,25.221C24.812,22.148 27.784,16.321 27.784,11.074C27.784,6.192 23.566,4.302 22.994,0.012C22.422,4.302 18.204,6.203 18.204,11.074C18.204,16.31 21.177,22.148 21.985,25.221C22.164,25.904 22.243,26.667 22.254,27.429C22.164,28.271 21.66,31.925 20.504,29.296C20.022,25.711 20.661,21.079 17.475,15.672C11.945,6.306 4.037,10.995 4.037,10.995C9.971,11.45 14.57,20.635 15.658,25.563C15.759,26.007 15.882,26.428 16.039,26.837C14.705,24.345 13.841,21.898 9.746,19.394C4.654,16.287 -1,21.625 -1,21.625C5.203,19.713 10.33,23.628 13.471,27.964C14.884,29.91 16.971,31.105 18.676,31.8L15.983,30.844C13.964,30.457 12.798,28.784 10.588,25.768C6,19.519 0.784,24.629 0.784,24.629C0.784,24.629 4.227,24.914 5.102,28.545C5.899,31.8 10.016,31.299 12.416,31.857C13.28,32.061 13.347,32.392 13.291,32.619C13.224,32.858 12.977,33.279 12.293,32.915C9.814,31.595 9.444,31.766 7.604,32.187C3.667,33.086 3.767,37.604 3.767,37.604C5.114,35.703 6.875,35.191 8.232,34.679C11.137,33.587 13.392,34.452 14.278,35.647C15.501,37.308 21.581,34.338 23.006,33.598C24.43,34.326 30.51,37.308 31.733,35.647C32.619,34.44 34.874,33.587 37.779,34.679C39.136,35.191 40.898,35.703 42.244,37.604C42.244,37.604 42.345,33.086 38.407,32.187C36.556,31.766 36.186,31.595 33.718,32.915C33.034,33.279 32.776,32.858 32.72,32.619C32.664,32.392 32.72,32.061 33.595,31.857C35.984,31.299 40.112,31.8 40.909,28.545C41.795,24.914 45.228,24.629 45.228,24.629C45.228,24.629 40.011,19.508 35.423,25.768L35.412,25.768Z" fill="#700606"/>
<path d="M25.449,38.264C25.449,39.516 24.451,40.529 23.217,40.529C21.983,40.529 20.984,39.516 20.984,38.264C20.984,37.012 21.983,35.999 23.217,35.999C24.451,35.999 25.449,37.012 25.449,38.264Z" fill="#700606"/>
<path d="M23.206,66L18.281,54.334L23.206,42.657L28.141,54.334L23.206,66Z" fill="#700606"/>
</svg>
