<svg width="18" height="24" viewBox="0 0 18 24" fill="none" xmlns="http://www.w3.org/2000/svg" xmlns:xlink="http://www.w3.org/1999/xlink">
<path d="M0,11.317L10.144,22.502C10.432,22.819 10.84,23 11.268,23L12.742,23C13.082,23 13.251,22.587 13.007,22.349L1.833,11.461C1.736,11.366 1.803,11.201 1.939,11.201L4.619,11.201C8.754,11.201 12.135,9.806 12.407,6.58L15.86,6.58C16.08,6.58 16.267,6.421 16.304,6.204C16.35,5.929 16.138,5.679 15.86,5.679L12.407,5.679C12.256,3.732 10.958,2.453 9.086,1.843L16.945,1.843C17.149,1.843 17.324,1.697 17.36,1.496C17.406,1.237 17.207,1 16.945,1L0.509,1C0.228,1 0,1.228 0,1.509C0,1.789 0.228,2.017 0.509,2.017L3.924,2.017C7.396,2.017 9.63,3.005 9.871,5.679L0.45,5.679C0.202,5.679 0,5.881 0,6.129C0,6.378 0.202,6.58 0.45,6.58L9.871,6.58C9.66,9.312 7.185,10.329 3.592,10.329L0.379,10.329C0.17,10.329 0,10.499 0,10.708L0,11.317Z" fill="#070202" stroke="#070202" stroke-width="0.25" stroke-miterlimit="3.999327"/>
</svg>
