<svg width="12" height="16" viewBox="0 0 12 16" fill="none" xmlns="http://www.w3.org/2000/svg" xmlns:xlink="http://www.w3.org/1999/xlink">
<path d="M-0.634,7.503L6.376,15.638C6.574,15.868 6.857,16 7.152,16L8.171,16C8.406,16 8.522,15.699 8.354,15.527L0.633,7.608C0.565,7.539 0.612,7.419 0.706,7.419L2.558,7.419C5.415,7.419 7.752,6.404 7.939,4.058L10.325,4.058C10.477,4.058 10.607,3.943 10.632,3.785C10.664,3.585 10.518,3.403 10.325,3.403L7.939,3.403C7.835,1.987 6.938,1.057 5.645,0.613L11.075,0.613C11.216,0.613 11.337,0.507 11.362,0.361C11.394,0.173 11.256,0 11.075,0L-0.282,0C-0.476,0 -0.634,0.166 -0.634,0.37C-0.634,0.574 -0.476,0.74 -0.282,0.74L2.078,0.74C4.477,0.74 6.02,1.458 6.187,3.403L-0.323,3.403C-0.494,3.403 -0.634,3.55 -0.634,3.731C-0.634,3.911 -0.494,4.058 -0.323,4.058L6.187,4.058C6.041,6.045 4.331,6.785 1.848,6.785L-0.372,6.785C-0.516,6.785 -0.634,6.908 -0.634,7.061L-0.634,7.503Z" fill="#969288" stroke="#969288" stroke-width="0.25" stroke-miterlimit="3.999327"/>
</svg>
