<svg width="58" height="56" viewBox="0 0 58 56" fill="none" xmlns="http://www.w3.org/2000/svg" xmlns:xlink="http://www.w3.org/1999/xlink">
<path d="M56,28C56,12.536 43.464,0 28,0C12.536,0 0,12.536 0,28C0,41.131 9.041,52.149 21.236,55.176L21.236,36.557L15.463,36.557L15.463,28L21.236,28L21.236,24.313C21.236,14.783 25.549,10.366 34.906,10.366C36.68,10.366 39.741,10.714 40.993,11.061L40.993,18.817C40.332,18.748 39.184,18.713 37.759,18.713C33.168,18.713 31.394,20.452 31.394,24.974L31.394,28L40.54,28L38.968,36.557L31.394,36.557L31.394,55.795C45.258,54.121 56.001,42.316 56.001,28L56,28Z" fill="#0866FF"/>
<path d="M38.967,36.557L40.538,28L31.392,28L31.392,24.974C31.392,20.452 33.167,18.713 37.757,18.713C39.183,18.713 40.331,18.748 40.992,18.817L40.992,11.061C39.74,10.713 36.679,10.366 34.905,10.366C25.548,10.366 21.235,14.783 21.235,24.313L21.235,28L15.462,28L15.462,36.557L21.235,36.557L21.235,55.176C23.401,55.713 25.667,56 27.999,56C29.147,56 30.279,55.929 31.391,55.795L31.391,36.557L38.966,36.557L38.967,36.557Z" fill="#FFFFFF"/>
</svg>
