<svg width="56" height="56" viewBox="0 0 56 56" fill="none" xmlns="http://www.w3.org/2000/svg" xmlns:xlink="http://www.w3.org/1999/xlink">
<path d="M28,5.042C35.481,5.042 36.367,5.075 39.309,5.206C42.044,5.327 43.52,5.786 44.505,6.169C45.806,6.672 46.747,7.284 47.72,8.258C48.705,9.242 49.306,10.172 49.809,11.473C50.192,12.458 50.652,13.945 50.772,16.669C50.903,19.622 50.936,20.508 50.936,27.978C50.936,35.459 50.903,36.345 50.772,39.288C50.652,42.022 50.192,43.498 49.809,44.483C49.306,45.784 48.694,46.725 47.72,47.698C46.736,48.683 45.806,49.284 44.505,49.788C43.52,50.17 42.033,50.63 39.309,50.75C36.356,50.881 35.47,50.914 28,50.914C20.519,50.914 19.633,50.881 16.691,50.75C13.956,50.63 12.48,50.17 11.495,49.788C10.194,49.284 9.253,48.672 8.28,47.698C7.295,46.714 6.694,45.784 6.191,44.483C5.808,43.498 5.348,42.011 5.228,39.288C5.097,36.334 5.064,35.448 5.064,27.978C5.064,20.497 5.097,19.611 5.228,16.669C5.348,13.934 5.808,12.458 6.191,11.473C6.694,10.172 7.306,9.231 8.28,8.258C9.264,7.273 10.194,6.672 11.495,6.169C12.48,5.786 13.967,5.327 16.691,5.206C19.633,5.075 20.519,5.042 28,5.042ZM28,0C20.398,0 19.447,0.033 16.461,0.164C13.486,0.295 11.441,0.777 9.669,1.466C7.82,2.188 6.256,3.139 4.703,4.703C3.139,6.256 2.188,7.82 1.466,9.658C0.777,11.441 0.295,13.475 0.164,16.45C0.033,19.447 0,20.398 0,28C0,35.602 0.033,36.553 0.164,39.539C0.295,42.514 0.777,44.559 1.466,46.331C2.188,48.18 3.139,49.744 4.703,51.297C6.256,52.85 7.82,53.812 9.658,54.523C11.441,55.212 13.475,55.694 16.45,55.825C19.436,55.956 20.388,55.989 27.989,55.989C35.591,55.989 36.542,55.956 39.528,55.825C42.503,55.694 44.548,55.212 46.32,54.523C48.158,53.812 49.722,52.85 51.275,51.297C52.828,49.744 53.791,48.18 54.502,46.342C55.191,44.559 55.672,42.525 55.803,39.55C55.934,36.564 55.967,35.612 55.967,28.011C55.967,20.409 55.934,19.458 55.803,16.472C55.672,13.497 55.191,11.452 54.502,9.68C53.813,7.82 52.861,6.256 51.297,4.703C49.744,3.15 48.18,2.188 46.342,1.477C44.559,0.787 42.525,0.306 39.55,0.175C36.553,0.033 35.602,0 28,0Z" fill="url(#pf_0_1_179)"/>
<path d="M28,13.617C20.059,13.617 13.617,20.059 13.617,28C13.617,35.941 20.059,42.383 28,42.383C35.941,42.383 42.383,35.941 42.383,28C42.383,20.059 35.941,13.617 28,13.617ZM28,37.33C22.848,37.33 18.67,33.152 18.67,28C18.67,22.848 22.848,18.67 28,18.67C33.152,18.67 37.33,22.848 37.33,28C37.33,33.152 33.152,37.33 28,37.33Z" fill="url(#pf_0_1_180)"/>
<path d="M46.309,13.048C46.309,14.908 44.8,16.406 42.952,16.406C41.092,16.406 39.594,14.897 39.594,13.048C39.594,11.189 41.103,9.691 42.952,9.691C44.8,9.691 46.309,11.2 46.309,13.048Z" fill="url(#pf_0_1_181)"/>
<defs>
<linearGradient id="pf_0_1_179" x1="27.984" y1="0" x2="27.984" y2="55.989" gradientUnits="userSpaceOnUse">
<stop stop-color="#DA5595"/>
<stop offset="1" stop-color="#D9A113"/>
</linearGradient>
<linearGradient id="pf_0_1_180" x1="28" y1="13.617" x2="28" y2="42.383" gradientUnits="userSpaceOnUse">
<stop stop-color="#DA5595"/>
<stop offset="1" stop-color="#D9A113"/>
</linearGradient>
<linearGradient id="pf_0_1_181" x1="42.952" y1="9.691" x2="42.952" y2="16.406" gradientUnits="userSpaceOnUse">
<stop stop-color="#DA5595"/>
<stop offset="1" stop-color="#D9A113"/>
</linearGradient>
</defs>
</svg>
