<svg width="34" height="28" viewBox="0 0 34 28" fill="none" xmlns="http://www.w3.org/2000/svg" xmlns:xlink="http://www.w3.org/1999/xlink">
<path d="M1.074,14.684C0.603,14.448 0.367,14.116 0.367,13.688C0.367,13.259 0.603,12.927 1.074,12.691L26.843,12.691C24.443,10.935 22.584,8.811 21.267,6.321C20.423,4.723 19.867,3.146 19.599,1.59C19.599,1.521 19.588,1.452 19.567,1.383C19.553,1.32 19.546,1.272 19.546,1.237C19.546,0.871 19.884,0.688 20.56,0.688C20.961,0.688 21.222,0.729 21.341,0.812C21.461,0.895 21.556,1.085 21.627,1.383C21.725,2.047 21.908,2.728 22.176,3.427C22.922,5.654 24.158,7.639 25.882,9.382C27.607,11.125 29.617,12.377 31.912,13.138C32.215,13.241 32.367,13.425 32.367,13.688C32.367,13.95 32.215,14.134 31.912,14.237C29.617,14.998 27.607,16.25 25.882,17.993C24.158,19.736 22.922,21.721 22.176,23.949C21.943,24.647 21.76,25.311 21.627,25.94C21.556,26.273 21.461,26.48 21.341,26.563C21.222,26.646 20.961,26.688 20.56,26.688C19.849,26.688 19.493,26.504 19.493,26.138C19.493,26.041 19.595,25.626 19.8,24.893C20.849,20.743 23.197,17.34 26.843,14.684L1.074,14.684Z" fill="#700606"/>
</svg>
