<svg width="32" height="32" viewBox="0 0 32 32" fill="none" xmlns="http://www.w3.org/2000/svg" xmlns:xlink="http://www.w3.org/1999/xlink">
<path d="M28.825,16L30.762,18.422C30.949,18.661 31.095,18.922 31.199,19.203C31.304,19.484 31.356,19.781 31.356,20.094C31.356,20.406 31.309,20.703 31.215,20.984C31.121,21.266 30.986,21.521 30.809,21.75C30.632,21.979 30.418,22.177 30.168,22.344C29.918,22.51 29.647,22.635 29.356,22.719L26.371,23.547C26.392,24.078 26.418,24.615 26.449,25.156C26.481,25.698 26.502,26.24 26.512,26.781C26.512,27.156 26.444,27.505 26.309,27.828C26.173,28.151 25.981,28.432 25.731,28.672C25.481,28.911 25.194,29.104 24.871,29.25C24.548,29.396 24.194,29.469 23.809,29.469C23.486,29.469 23.168,29.411 22.856,29.297L19.965,28.203L18.262,30.781C18.012,31.167 17.689,31.464 17.293,31.672C16.898,31.88 16.465,31.99 15.996,32C15.538,32 15.111,31.896 14.715,31.688C14.319,31.479 13.991,31.177 13.731,30.781L12.028,28.203L9.137,29.297C8.825,29.411 8.507,29.469 8.184,29.469C7.809,29.469 7.46,29.401 7.137,29.266C6.814,29.13 6.528,28.938 6.278,28.688C6.028,28.438 5.835,28.151 5.7,27.828C5.564,27.505 5.491,27.156 5.481,26.781C5.481,26.24 5.496,25.698 5.528,25.156C5.559,24.615 5.59,24.078 5.621,23.547L2.637,22.719C2.335,22.635 2.064,22.51 1.825,22.344C1.585,22.177 1.377,21.979 1.2,21.75C1.023,21.521 0.887,21.266 0.793,20.984C0.7,20.703 0.648,20.406 0.637,20.094C0.637,19.792 0.689,19.5 0.793,19.219C0.898,18.938 1.043,18.672 1.231,18.422L3.168,16L1.231,13.578C0.835,13.089 0.637,12.531 0.637,11.906C0.637,11.594 0.684,11.297 0.778,11.016C0.871,10.734 1.007,10.479 1.184,10.25C1.361,10.021 1.569,9.823 1.809,9.656C2.049,9.49 2.325,9.365 2.637,9.281L5.621,8.453C5.601,7.922 5.575,7.385 5.543,6.844C5.512,6.302 5.491,5.76 5.481,5.219C5.481,4.844 5.549,4.495 5.684,4.172C5.819,3.849 6.012,3.568 6.262,3.328C6.512,3.089 6.799,2.896 7.121,2.75C7.444,2.604 7.799,2.531 8.184,2.531C8.507,2.531 8.825,2.589 9.137,2.703L12.028,3.797L13.731,1.219C13.981,0.833 14.304,0.536 14.7,0.328C15.095,0.12 15.528,0.01 15.996,0C16.455,0 16.882,0.104 17.278,0.313C17.674,0.521 18.002,0.823 18.262,1.219L19.965,3.797L22.856,2.703C23.168,2.589 23.486,2.531 23.809,2.531C24.184,2.531 24.533,2.599 24.856,2.734C25.179,2.87 25.465,3.063 25.715,3.313C25.965,3.563 26.158,3.849 26.293,4.172C26.429,4.495 26.502,4.844 26.512,5.219C26.512,5.76 26.496,6.302 26.465,6.844C26.434,7.385 26.403,7.922 26.371,8.453L29.356,9.281C29.647,9.365 29.918,9.49 30.168,9.656C30.418,9.823 30.627,10.021 30.793,10.25C30.96,10.479 31.095,10.734 31.199,11.016C31.304,11.297 31.356,11.594 31.356,11.906C31.356,12.531 31.158,13.089 30.762,13.578L28.825,16ZM13.996,21.766L22.887,12.891L21.106,11.109L13.996,18.234L10.887,15.109L9.106,16.891L13.996,21.766Z" fill="#2E90FA"/>
</svg>
