<svg width="34" height="26" viewBox="0 0 34 26" fill="none" xmlns="http://www.w3.org/2000/svg" xmlns:xlink="http://www.w3.org/1999/xlink">
<path d="M1.708,13.996C1.236,13.761 1,13.429 1,13C1,12.571 1.236,12.239 1.708,12.004L27.477,12.004C25.076,10.247 23.217,8.124 21.901,5.634C21.056,4.036 20.5,2.459 20.232,0.903C20.232,0.833 20.222,0.764 20.201,0.695C20.187,0.633 20.18,0.584 20.18,0.55C20.18,0.183 20.517,0 21.193,0C21.595,0 21.855,0.042 21.975,0.125C22.095,0.208 22.19,0.398 22.26,0.695C22.359,1.359 22.542,2.04 22.809,2.739C23.555,4.966 24.791,6.951 26.516,8.694C28.241,10.437 30.251,11.689 32.546,12.45C32.849,12.554 33,12.737 33,13C33,13.263 32.849,13.446 32.546,13.55C30.251,14.311 28.241,15.563 26.516,17.306C24.791,19.049 23.555,21.034 22.809,23.261C22.577,23.96 22.394,24.624 22.26,25.253C22.19,25.585 22.095,25.792 21.975,25.875C21.855,25.958 21.595,26 21.193,26C20.482,26 20.127,25.817 20.127,25.45C20.127,25.353 20.229,24.938 20.433,24.205C21.482,20.055 23.83,16.652 27.477,13.996L1.708,13.996Z" fill="#700606"/>
</svg>
