<svg width="32" height="26" viewBox="0 0 32 26" fill="none" xmlns="http://www.w3.org/2000/svg" xmlns:xlink="http://www.w3.org/1999/xlink">
<path d="M-0.292,13.996C-0.764,13.761 -1,13.429 -1,13C-1,12.571 -0.764,12.239 -0.292,12.004L25.477,12.004C23.076,10.247 21.217,8.124 19.901,5.634C19.056,4.036 18.5,2.459 18.232,0.903C18.232,0.833 18.222,0.764 18.201,0.695C18.187,0.633 18.18,0.584 18.18,0.55C18.18,0.183 18.517,0 19.193,0C19.595,0 19.855,0.042 19.975,0.125C20.095,0.208 20.19,0.398 20.26,0.695C20.359,1.359 20.542,2.04 20.809,2.739C21.555,4.966 22.791,6.951 24.516,8.694C26.241,10.437 28.251,11.689 30.546,12.45C30.849,12.554 31,12.737 31,13C31,13.263 30.849,13.446 30.546,13.55C28.251,14.311 26.241,15.563 24.516,17.306C22.791,19.049 21.555,21.034 20.809,23.261C20.577,23.96 20.394,24.624 20.26,25.253C20.19,25.585 20.095,25.792 19.975,25.875C19.855,25.958 19.595,26 19.193,26C18.482,26 18.127,25.817 18.127,25.45C18.127,25.353 18.229,24.938 18.433,24.205C19.482,20.055 21.83,16.652 25.477,13.996L-0.292,13.996Z" transform="rotate(360 15 13)" fill="#700606"/>
</svg>
