<svg width="34" height="28" viewBox="0 0 34 28" fill="none" xmlns="http://www.w3.org/2000/svg" xmlns:xlink="http://www.w3.org/1999/xlink">
<path d="M1.582,14.87C1.11,14.635 0.874,14.303 0.874,13.874C0.874,13.445 1.11,13.113 1.582,12.878L27.351,12.878C24.95,11.121 23.092,8.998 21.775,6.508C20.93,4.91 20.374,3.333 20.107,1.777C20.107,1.708 20.096,1.639 20.075,1.569C20.061,1.507 20.054,1.459 20.054,1.424C20.054,1.058 20.392,0.874 21.068,0.874C21.469,0.874 21.73,0.916 21.849,0.999C21.969,1.082 22.064,1.272 22.134,1.569C22.233,2.233 22.416,2.915 22.683,3.613C23.43,5.84 24.665,7.826 26.39,9.569C28.115,11.312 30.125,12.564 32.42,13.324C32.723,13.428 32.874,13.611 32.874,13.874C32.874,14.137 32.723,14.32 32.42,14.424C30.125,15.185 28.115,16.437 26.39,18.18C24.665,19.923 23.43,21.908 22.683,24.135C22.451,24.834 22.268,25.498 22.134,26.127C22.064,26.459 21.969,26.667 21.849,26.75C21.73,26.833 21.469,26.874 21.068,26.874C20.357,26.874 20.001,26.691 20.001,26.324C20.001,26.227 20.103,25.812 20.307,25.079C21.356,20.929 23.704,17.526 27.351,14.87L1.582,14.87Z" transform="rotate(-90 16.874 13.874)" fill="#2F2D2D"/>
</svg>
