<svg width="32" height="26" viewBox="0 0 32 26" fill="none" xmlns="http://www.w3.org/2000/svg" xmlns:xlink="http://www.w3.org/1999/xlink">
<path d="M0.708,13.996C0.236,13.761 0,13.429 0,13C0,12.571 0.236,12.239 0.708,12.004L26.477,12.004C24.076,10.247 22.217,8.124 20.901,5.634C20.056,4.036 19.5,2.459 19.232,0.903C19.232,0.833 19.222,0.764 19.201,0.695C19.187,0.633 19.18,0.584 19.18,0.55C19.18,0.183 19.517,0 20.193,0C20.595,0 20.855,0.042 20.975,0.125C21.095,0.208 21.19,0.398 21.26,0.695C21.359,1.359 21.542,2.04 21.809,2.739C22.555,4.966 23.791,6.951 25.516,8.694C27.241,10.437 29.251,11.689 31.546,12.45C31.849,12.554 32,12.737 32,13C32,13.263 31.849,13.446 31.546,13.55C29.251,14.311 27.241,15.563 25.516,17.306C23.791,19.049 22.555,21.034 21.809,23.261C21.577,23.96 21.394,24.624 21.26,25.253C21.19,25.585 21.095,25.792 20.975,25.875C20.855,25.958 20.595,26 20.193,26C19.482,26 19.127,25.817 19.127,25.45C19.127,25.353 19.229,24.938 19.433,24.205C20.482,20.055 22.83,16.652 26.477,13.996L0.708,13.996Z" fill="#700606"/>
</svg>
