<svg width="34" height="34" viewBox="0 0 34 34" fill="none" xmlns="http://www.w3.org/2000/svg" xmlns:xlink="http://www.w3.org/1999/xlink">
<path d="M23.338,20.496C22.557,19.715 21.291,19.714 20.509,20.495C19.728,21.275 19.727,22.541 20.508,23.323L23.338,20.496ZM30.585,33.413C31.365,34.195 32.632,34.196 33.413,33.415C34.195,32.635 34.196,31.368 33.415,30.587L30.585,33.413ZM20.508,23.323L30.585,33.413L33.415,30.587L23.338,20.496L20.508,23.323ZM23.333,13.667C23.333,19.005 19.005,23.333 13.667,23.333L13.667,27.333C21.215,27.333 27.333,21.215 27.333,13.667L23.333,13.667ZM13.667,23.333C8.328,23.333 4,19.005 4,13.667L0,13.667C0,21.215 6.119,27.333 13.667,27.333L13.667,23.333ZM4,13.667C4,8.328 8.328,4 13.667,4L13.667,0C6.119,0 0,6.119 0,13.667L4,13.667ZM13.667,4C19.005,4 23.333,8.328 23.333,13.667L27.333,13.667C27.333,6.119 21.215,0 13.667,0L13.667,4Z" fill="#700606"/>
</svg>
