<svg width="34" height="36" viewBox="0 0 34 36" fill="none" xmlns="http://www.w3.org/2000/svg" xmlns:xlink="http://www.w3.org/1999/xlink">
<path d="M22.338,21.496C21.557,20.715 20.291,20.714 19.509,21.495C18.728,22.275 18.727,23.541 19.508,24.323L22.338,21.496ZM29.585,34.413C30.365,35.195 31.632,35.196 32.413,34.415C33.195,33.635 33.196,32.368 32.415,31.587L29.585,34.413ZM19.508,24.323L29.585,34.413L32.415,31.587L22.338,21.496L19.508,24.323ZM22.333,14.667C22.333,20.005 18.005,24.333 12.667,24.333L12.667,28.333C20.215,28.333 26.333,22.215 26.333,14.667L22.333,14.667ZM12.667,24.333C7.328,24.333 3,20.005 3,14.667L-1,14.667C-1,22.215 5.119,28.333 12.667,28.333L12.667,24.333ZM3,14.667C3,9.328 7.328,5 12.667,5L12.667,1C5.119,1 -1,7.119 -1,14.667L3,14.667ZM12.667,5C18.005,5 22.333,9.328 22.333,14.667L26.333,14.667C26.333,7.119 20.215,1 12.667,1L12.667,5Z" fill="#700606"/>
</svg>
